<?xml version="1.0" encoding="UTF-8" standalone="no"?>
<!-- Generator: Gravit.io -->
<svg xmlns="http://www.w3.org/2000/svg" xmlns:xlink="http://www.w3.org/1999/xlink" style="isolation:isolate" viewBox="0 0 533 239" width="533pt" height="239pt"><defs><clipPath id="_clipPath_kdvgK9JvbzqPUDtnqMm39deoPabERFAA"><rect width="533" height="239"/></clipPath></defs><g clip-path="url(#_clipPath_kdvgK9JvbzqPUDtnqMm39deoPabERFAA)"><rect width="533" height="239" style="fill:rgb(185,15,15)" fill-opacity="0"/><g><path d=" M 337.712 108.05 C 335.45 100.993 332.161 94.919 327.843 89.668 C 318.385 78.667 304.612 72.593 287.96 72.266 L 287.551 72.266 L 248.904 72.266 C 246.642 72.266 245 73.581 245 75.384 L 245 75.714 L 245 76.206 L 245 184.054 C 245 185.857 246.642 187.172 248.904 187.172 L 282.41 187.172 C 292.278 187.172 301.117 185.695 308.723 182.575 C 315.92 179.622 322.086 175.352 327.227 169.935 C 336.273 159.922 341 146.133 341 129.884 C 341 122.004 339.97 114.781 337.712 108.05 Z  M 320.854 166.326 C 312.015 176.009 299.061 180.933 282.41 180.933 L 252.809 180.933 L 252.809 78.505 L 286.728 78.505 C 294.334 78.505 301.117 79.816 307.081 82.445 C 312.631 84.906 317.359 88.519 321.47 93.113 C 325.172 97.71 328.253 103.291 330.309 109.53 C 332.161 115.765 333.187 122.661 333.187 129.884 C 333.187 144.822 328.869 157.296 320.854 166.326 Z " fill="rgb(255,255,255)"/><path d=" M 439.203 91.201 C 429.123 78.978 414.395 71.266 398 71.266 C 367.645 71.266 343 97.703 343 130.266 C 343 162.829 367.645 189.266 398 189.266 C 414.395 189.266 429.123 181.555 439.203 169.332 L 439.203 147.121 L 439.203 145.941 L 439.203 91.201 Z  M 446.342 102.122 C 450.587 110.489 453 120.078 453 130.266 C 453 131.069 452.985 131.868 452.955 132.663 L 446.342 138.693 L 446.342 102.122 Z  M 451.704 143.047 C 450.582 148.488 448.759 153.647 446.342 158.411 L 446.342 147.966 L 451.704 143.047 Z " fill-rule="evenodd" fill="rgb(255,255,255)"/><path d=" M 452.955 132.663 L 517.15 74.129 C 518.654 72.779 520.91 72.779 522.222 73.96 C 523.726 75.31 523.726 77.331 522.411 78.511 L 476.956 119.981 L 526.356 184.209 C 527.482 185.725 527.108 187.75 525.415 188.761 C 523.915 189.602 521.473 189.436 520.533 187.916 L 471.885 124.533 L 451.704 143.047 C 452.397 139.684 452.823 136.214 452.955 132.663 Z  M 446.342 138.693 L 446.342 74.465 C 446.342 72.613 444.649 71.263 442.771 71.263 C 440.704 71.263 439.203 72.613 439.203 74.465 L 439.203 91.201 C 441.947 94.529 444.347 98.19 446.342 102.122 L 446.342 138.693 L 446.342 138.693 Z  M 439.203 169.332 L 439.203 186.065 C 439.203 187.75 440.704 189.266 442.771 189.266 C 444.649 189.266 446.342 187.75 446.342 186.065 L 446.342 147.966 L 450.766 143.907 L 446.342 147.966 L 446.342 158.411 C 444.347 162.342 441.947 166.004 439.203 169.332 Z " fill-rule="evenodd" fill="rgb(255,255,255)"/><path d=" M 6 120.266 C 6 58.857 55.857 9 117.266 9 C 178.676 9 228.533 58.857 228.533 120.266 C 228.533 181.676 178.676 231.533 117.266 231.533 C 55.857 231.533 6 181.676 6 120.266 Z  M 142.274 180.597 M 159.371 62.266 C 157.461 62.266 155.743 63.925 155.743 65.769 L 155.743 148.378 C 155.743 168.664 138.546 185.258 117.533 185.258 C 96.519 185.258 79.322 168.664 79.322 148.378 L 79.322 65.769 C 79.322 63.743 77.796 62.266 75.694 62.266 C 73.591 62.266 72.065 63.743 72.065 65.769 L 72.065 148.378 C 72.065 159.997 76.839 171.06 85.438 179.356 C 94.036 187.655 105.306 192.266 117.533 192.266 C 129.759 192.266 141.029 187.655 149.628 179.356 C 158.226 171.06 163 159.997 163 148.378 L 163 65.769 C 163 63.925 161.474 62.266 159.371 62.266 L 159.371 62.266 Z " fill-rule="evenodd" fill="rgb(255,255,255)"/></g></g></svg>