<svg version="1.2" baseProfile="tiny-ps" xmlns="http://www.w3.org/2000/svg" viewBox="0 0 533 239" width="533" height="239">
	<title>udok-logo-svg</title>
	<defs>
		<clipPath clipPathUnits="userSpaceOnUse" id="cp1">
			<path d="M0 0L533 0L533 239L0 239L0 0Z" />
		</clipPath>
	</defs>
	<style>
		tspan { white-space:pre }
		.shp0 { fill: none } 
		.shp1 { fill: #ffffff } 
	</style>
	<g id="Clip-Path" clip-path="url(#cp1)">
		<g id="Layer">
			<path id="Layer" class="shp0" d="M0 0L533 0L533 239L0 239L0 0Z" />
			<g id="Layer">
				<path id="Layer" fill-rule="evenodd" class="shp1" d="M341 129.88C341 146.13 336.27 159.92 327.23 169.94C322.09 175.35 315.92 179.62 308.72 182.57C301.12 185.69 292.28 187.17 282.41 187.17L248.9 187.17C246.64 187.17 245 185.86 245 184.05L245 75.38C245 73.58 246.64 72.27 248.9 72.27L287.96 72.27C304.61 72.59 318.38 78.67 327.84 89.67C332.16 94.92 335.45 100.99 337.71 108.05C339.97 114.78 341 122 341 129.88ZM333.19 129.88C333.19 122.66 332.16 115.77 330.31 109.53C328.25 103.29 325.17 97.71 321.47 93.11C317.36 88.52 312.63 84.91 307.08 82.44C301.12 79.82 294.33 78.5 286.73 78.5L252.81 78.5L252.81 180.93L282.41 180.93C299.06 180.93 312.01 176.01 320.85 166.33C328.87 157.3 333.19 144.82 333.19 129.88Z" />
				<path id="Layer" fill-rule="evenodd" class="shp1" d="M439.2 169.33C429.12 181.56 414.39 189.27 398 189.27C367.64 189.27 343 162.83 343 130.27C343 97.7 367.64 71.27 398 71.27C414.39 71.27 429.12 78.98 439.2 91.2L439.2 169.33ZM446.34 102.12C450.59 110.49 453 120.08 453 130.27C453 131.07 452.99 131.87 452.95 132.66L446.34 138.69L446.34 102.12ZM451.7 143.05C450.58 148.49 448.76 153.65 446.34 158.41L446.34 147.97L451.7 143.05Z" />
				<path id="Layer" fill-rule="evenodd" class="shp1" d="M452.95 132.66L517.15 74.13C518.65 72.78 520.91 72.78 522.22 73.96C523.73 75.31 523.73 77.33 522.41 78.51L476.96 119.98L526.36 184.21C527.48 185.72 527.11 187.75 525.41 188.76C523.91 189.6 521.47 189.44 520.53 187.92L471.88 124.53L451.7 143.05C452.4 139.68 452.82 136.21 452.95 132.66ZM446.34 102.12C444.35 98.19 441.95 94.53 439.2 91.2L439.2 74.47C439.2 72.61 440.7 71.26 442.77 71.26C444.65 71.26 446.34 72.61 446.34 74.47L446.34 102.12ZM446.34 158.41L446.34 186.06C446.34 187.75 444.65 189.27 442.77 189.27C440.7 189.27 439.2 187.75 439.2 186.06L439.2 169.33C441.95 166 444.35 162.34 446.34 158.41Z" />
				<path id="Layer" fill-rule="evenodd" class="shp1" d="M6 120.27C6 58.86 55.86 9 117.27 9C178.68 9 228.53 58.86 228.53 120.27C228.53 181.68 178.68 231.53 117.27 231.53C55.86 231.53 6 181.68 6 120.27ZM155.74 65.77L155.74 148.38C155.74 168.66 138.55 185.26 117.53 185.26C96.52 185.26 79.32 168.66 79.32 148.38L79.32 65.77C79.32 63.74 77.8 62.27 75.69 62.27C73.59 62.27 72.06 63.74 72.06 65.77L72.06 148.38C72.06 160 76.84 171.06 85.44 179.36C94.04 187.66 105.31 192.27 117.53 192.27C129.76 192.27 141.03 187.66 149.63 179.36C158.23 171.06 163 160 163 148.38L163 65.77C163 63.92 161.47 62.27 159.37 62.27C157.46 62.27 155.74 63.92 155.74 65.77Z" />
			</g>
		</g>
	</g>
</svg>